<svg width="20" height="25" viewBox="0 0 20 25" fill="none" xmlns="http://www.w3.org/2000/svg">
<path fill-rule="evenodd" clip-rule="evenodd" d="M9.99998 0.458374C6.9394 0.458374 4.45831 2.93946 4.45831 6.00004C4.45831 9.06062 6.9394 11.5417 9.99998 11.5417C13.0606 11.5417 15.5416 9.06062 15.5416 6.00004C15.5416 2.93946 13.0606 0.458374 9.99998 0.458374ZM6.20831 6.00004C6.20831 3.90596 7.9059 2.20837 9.99998 2.20837C12.0941 2.20837 13.7916 3.90596 13.7916 6.00004C13.7916 8.09412 12.0941 9.79171 9.99998 9.79171C7.9059 9.79171 6.20831 8.09412 6.20831 6.00004Z" fill="#737373"/>
<path fill-rule="evenodd" clip-rule="evenodd" d="M6.49998 13.2917C3.4394 13.2917 0.958313 15.7728 0.958313 18.8334C0.958313 21.894 3.4394 24.375 6.49998 24.375H13.5C16.5606 24.375 19.0416 21.894 19.0416 18.8334C19.0416 15.7728 16.5606 13.2917 13.5 13.2917H6.49998ZM2.70831 18.8334C2.70831 16.7393 4.4059 15.0417 6.49998 15.0417H13.5C15.5941 15.0417 17.2916 16.7393 17.2916 18.8334C17.2916 20.9275 15.5941 22.625 13.5 22.625H6.49998C4.4059 22.625 2.70831 20.9275 2.70831 18.8334Z" fill="#737373"/>
</svg>
